<svg xmlns="http://www.w3.org/2000/svg" xmlns:xlink="http://www.w3.org/1999/xlink" width="500" zoomAndPan="magnify" viewBox="0 0 375 374.999991" height="500" preserveAspectRatio="xMidYMid meet" version="1.0"><defs><g/><clipPath id="afe6160756"><path d="M 33 39 L 335 39 L 335 341 L 33 341 Z M 33 39 " clip-rule="nonzero"/></clipPath><clipPath id="9347dac65a"><path d="M -5.488281 183.316406 L 130.359375 19.261719 L 362 211.078125 L 226.152344 375.132812 Z M -5.488281 183.316406 " clip-rule="nonzero"/></clipPath><clipPath id="18d8c6bc94"><path d="M -27.457031 209.847656 L 164.355469 -21.792969 L 396 170.019531 L 204.183594 401.664062 Z M -27.457031 209.847656 " clip-rule="nonzero"/></clipPath></defs><rect x="-37.5" width="450" fill="#ffffff" y="-37.499999" height="449.999989" fill-opacity="1"/><rect x="-37.5" width="450" fill="#e68519" y="-37.499999" height="449.999989" fill-opacity="1"/><g clip-path="url(#afe6160756)"><g clip-path="url(#9347dac65a)"><g clip-path="url(#18d8c6bc94)"><path fill="#ffffff" d="M 299.847656 285.785156 C 247.019531 349.582031 152.074219 358.511719 88.277344 305.683594 C 24.480469 252.855469 15.550781 157.910156 68.378906 94.113281 C 121.207031 30.316406 216.152344 21.386719 279.949219 74.214844 C 343.746094 127.042969 352.675781 221.988281 299.847656 285.785156 Z M 70.089844 95.527344 C 18.015625 158.414062 26.808594 251.902344 89.691406 303.972656 C 152.578125 356.046875 246.066406 347.253906 298.136719 284.371094 C 350.210938 221.484375 341.417969 127.996094 278.535156 75.925781 C 215.648438 23.851562 122.160156 32.644531 70.089844 95.527344 Z M 70.089844 95.527344 " fill-opacity="1" fill-rule="nonzero"/></g></g></g><g fill="#ffffff" fill-opacity="1"><g transform="translate(84.422543, 264.787007)"><g><path d="M 196.328125 -3.28125 C 197.242188 -3.28125 197.703125 -2.734375 197.703125 -1.640625 C 197.703125 -0.546875 197.242188 0 196.328125 0 C 192.679688 0 187.023438 -0.179688 179.359375 -0.546875 C 171.328125 -0.910156 165.578125 -1.09375 162.109375 -1.09375 C 157.546875 -1.09375 151.976562 -0.910156 145.40625 -0.546875 C 139.195312 -0.179688 134.265625 0 130.609375 0 C 129.878906 0 129.515625 -0.546875 129.515625 -1.640625 C 129.515625 -2.734375 129.878906 -3.28125 130.609375 -3.28125 C 135.359375 -3.28125 138.78125 -3.78125 140.875 -4.78125 C 142.976562 -5.789062 144.03125 -7.570312 144.03125 -10.125 C 144.03125 -13.226562 142.207031 -18.429688 138.5625 -25.734375 L 119.9375 -62.703125 L 52.578125 -62.703125 L 41.890625 -38.890625 C 39.515625 -33.585938 38.328125 -28.65625 38.328125 -24.09375 C 38.328125 -17.519531 40.65625 -12.40625 45.3125 -8.75 C 49.96875 -5.101562 56.222656 -3.28125 64.078125 -3.28125 C 64.984375 -3.28125 65.4375 -2.734375 65.4375 -1.640625 C 65.4375 -0.546875 64.984375 0 64.078125 0 C 60.785156 0 56.039062 -0.179688 49.84375 -0.546875 C 42.90625 -0.910156 36.878906 -1.09375 31.765625 -1.09375 C 26.835938 -1.09375 20.90625 -0.910156 13.96875 -0.546875 C 7.757812 -0.179688 2.738281 0 -1.09375 0 C -1.820312 0 -2.1875 -0.546875 -2.1875 -1.640625 C -2.1875 -2.734375 -1.820312 -3.28125 -1.09375 -3.28125 C 4.019531 -3.28125 8.3125 -4.328125 11.78125 -6.421875 C 15.25 -8.523438 18.710938 -12.269531 22.171875 -17.65625 C 25.640625 -23.039062 29.75 -31.03125 34.5 -41.625 L 93.921875 -172.234375 C 94.285156 -172.785156 95.109375 -173.0625 96.390625 -173.0625 C 97.847656 -173.0625 98.671875 -172.785156 98.859375 -172.234375 L 167.3125 -37.515625 C 173.695312 -24.554688 178.988281 -15.609375 183.1875 -10.671875 C 187.382812 -5.742188 191.765625 -3.28125 196.328125 -3.28125 Z M 56.140625 -70.375 L 115.828125 -70.375 L 84.34375 -132.8125 Z M 56.140625 -70.375 "/></g></g></g><g fill="#ffffff" fill-opacity="1"><g transform="translate(205.580131, 46.031551)"><g><path d="M 25.8125 2.90625 C 25.90625 2.914062 25.941406 2.992188 25.921875 3.140625 C 25.898438 3.296875 25.84375 3.367188 25.75 3.359375 C 25.269531 3.296875 24.546875 3.171875 23.578125 2.984375 C 22.597656 2.804688 21.882812 2.691406 21.4375 2.640625 C 20.90625 2.566406 20.222656 2.5 19.390625 2.4375 C 18.585938 2.394531 17.984375 2.34375 17.578125 2.28125 C 17.472656 2.269531 17.429688 2.1875 17.453125 2.03125 C 17.472656 1.882812 17.535156 1.816406 17.640625 1.828125 C 18.546875 1.953125 19.21875 1.957031 19.65625 1.84375 C 20.09375 1.726562 20.335938 1.460938 20.390625 1.046875 C 20.429688 0.703125 20.335938 0.15625 20.109375 -0.59375 L 17.734375 -8 L 8.96875 -9.140625 L 5.953125 -3.96875 C 5.492188 -3.1875 5.226562 -2.539062 5.15625 -2.03125 C 5.0625 -1.257812 5.289062 -0.660156 5.84375 -0.234375 C 6.40625 0.191406 7.285156 0.484375 8.484375 0.640625 C 8.609375 0.660156 8.660156 0.742188 8.640625 0.890625 C 8.617188 1.046875 8.546875 1.113281 8.421875 1.09375 C 7.992188 1.039062 7.363281 0.929688 6.53125 0.765625 C 5.59375 0.597656 4.785156 0.46875 4.109375 0.375 C 3.460938 0.289062 2.722656 0.222656 1.890625 0.171875 C 1.148438 0.117188 0.53125 0.0625 0.03125 0 C -0.09375 -0.0078125 -0.144531 -0.0859375 -0.125 -0.234375 C -0.101562 -0.390625 -0.03125 -0.460938 0.09375 -0.453125 C 0.78125 -0.359375 1.378906 -0.40625 1.890625 -0.59375 C 2.410156 -0.78125 2.925781 -1.171875 3.4375 -1.765625 C 3.945312 -2.359375 4.546875 -3.238281 5.234375 -4.40625 L 15.375 -21.734375 C 15.4375 -21.804688 15.53125 -21.832031 15.65625 -21.8125 C 15.78125 -21.789062 15.847656 -21.742188 15.859375 -21.671875 L 22.15625 -2.25 C 22.757812 -0.320312 23.316406 0.988281 23.828125 1.6875 C 24.335938 2.382812 25 2.789062 25.8125 2.90625 Z M 9.375 -9.828125 L 17.515625 -8.765625 L 14.390625 -18.421875 Z M 9.375 -9.828125 "/></g></g></g><g fill="#ffffff" fill-opacity="1"><g transform="translate(229.59997, 49.30176)"><g><path d="M 17.703125 5.046875 C 17.765625 5.066406 17.769531 5.148438 17.71875 5.296875 C 17.675781 5.441406 17.625 5.503906 17.5625 5.484375 C 17.007812 5.304688 16.582031 5.160156 16.28125 5.046875 L 14.375 4.40625 L 12.421875 3.84375 C 12.109375 3.769531 11.675781 3.644531 11.125 3.46875 C 11.050781 3.445312 11.035156 3.363281 11.078125 3.21875 C 11.128906 3.070312 11.191406 3.007812 11.265625 3.03125 C 11.910156 3.238281 12.398438 3.320312 12.734375 3.28125 C 13.078125 3.25 13.351562 3.082031 13.5625 2.78125 C 13.78125 2.488281 14 1.988281 14.21875 1.28125 L 16.015625 -4.46875 C 16.453125 -5.851562 16.507812 -6.957031 16.1875 -7.78125 C 15.863281 -8.613281 15.144531 -9.203125 14.03125 -9.546875 C 13.300781 -9.773438 12.5 -9.8125 11.625 -9.65625 C 10.757812 -9.5 9.914062 -9.175781 9.09375 -8.6875 L 6.703125 -1.0625 C 6.484375 -0.351562 6.375 0.175781 6.375 0.53125 C 6.375 0.894531 6.507812 1.191406 6.78125 1.421875 C 7.0625 1.648438 7.519531 1.863281 8.15625 2.0625 C 8.21875 2.082031 8.222656 2.164062 8.171875 2.3125 C 8.128906 2.457031 8.078125 2.519531 8.015625 2.5 C 7.472656 2.332031 7.050781 2.191406 6.75 2.078125 L 4.828125 1.421875 L 2.890625 0.859375 C 2.578125 0.785156 2.144531 0.664062 1.59375 0.5 C 1.519531 0.476562 1.503906 0.394531 1.546875 0.25 C 1.597656 0.101562 1.660156 0.0390625 1.734375 0.0625 C 2.367188 0.257812 2.859375 0.335938 3.203125 0.296875 C 3.546875 0.265625 3.820312 0.101562 4.03125 -0.1875 C 4.238281 -0.476562 4.453125 -0.976562 4.671875 -1.6875 L 6.875 -8.703125 C 7.125 -9.503906 7.207031 -10.113281 7.125 -10.53125 C 7.050781 -10.945312 6.789062 -11.222656 6.34375 -11.359375 C 5.96875 -11.472656 5.273438 -11.5 4.265625 -11.4375 L 4.1875 -11.46875 C 4.101562 -11.488281 4.054688 -11.554688 4.046875 -11.671875 C 4.046875 -11.796875 4.101562 -11.863281 4.21875 -11.875 L 8.9375 -12.546875 L 9.15625 -12.5 C 9.363281 -12.4375 9.5 -12.097656 9.5625 -11.484375 C 9.632812 -10.867188 9.539062 -10.132812 9.28125 -9.28125 C 10.5 -10.039062 11.625 -10.53125 12.65625 -10.75 C 13.695312 -10.96875 14.695312 -10.925781 15.65625 -10.625 C 16.976562 -10.21875 17.878906 -9.535156 18.359375 -8.578125 C 18.835938 -7.628906 18.851562 -6.441406 18.40625 -5.015625 L 16.234375 1.921875 C 16.015625 2.628906 15.90625 3.160156 15.90625 3.515625 C 15.914062 3.878906 16.054688 4.171875 16.328125 4.390625 C 16.597656 4.617188 17.054688 4.835938 17.703125 5.046875 Z M 17.703125 5.046875 "/></g></g></g><g fill="#ffffff" fill-opacity="1"><g transform="translate(246.488791, 54.453236)"><g><path d="M 16.765625 7.578125 C 16.828125 7.609375 16.820312 7.691406 16.75 7.828125 C 16.6875 7.960938 16.625 8.015625 16.5625 7.984375 C 16.050781 7.734375 15.65625 7.53125 15.375 7.375 L 13.578125 6.453125 L 11.71875 5.609375 C 11.425781 5.492188 11.019531 5.3125 10.5 5.0625 C 10.4375 5.03125 10.4375 4.945312 10.5 4.8125 C 10.570312 4.675781 10.640625 4.625 10.703125 4.65625 C 11.316406 4.945312 11.789062 5.097656 12.125 5.109375 C 12.46875 5.128906 12.765625 5.007812 13.015625 4.75 C 13.273438 4.488281 13.566406 4.019531 13.890625 3.34375 L 16.5 -2.078125 C 17.132812 -3.390625 17.351562 -4.476562 17.15625 -5.34375 C 16.957031 -6.207031 16.332031 -6.894531 15.28125 -7.40625 C 14.582031 -7.738281 13.796875 -7.890625 12.921875 -7.859375 C 12.046875 -7.828125 11.160156 -7.628906 10.265625 -7.265625 L 6.796875 -0.078125 C 6.472656 0.597656 6.285156 1.113281 6.234375 1.46875 C 6.179688 1.832031 6.269531 2.144531 6.5 2.40625 C 6.738281 2.664062 7.160156 2.941406 7.765625 3.234375 C 7.828125 3.265625 7.820312 3.347656 7.75 3.484375 C 7.6875 3.617188 7.625 3.671875 7.5625 3.640625 C 7.050781 3.398438 6.65625 3.195312 6.375 3.03125 L 4.578125 2.109375 L 2.734375 1.28125 C 2.429688 1.15625 2.019531 0.96875 1.5 0.71875 C 1.4375 0.6875 1.4375 0.601562 1.5 0.46875 C 1.570312 0.332031 1.640625 0.28125 1.703125 0.3125 C 2.304688 0.601562 2.78125 0.753906 3.125 0.765625 C 3.476562 0.785156 3.78125 0.664062 4.03125 0.40625 C 4.28125 0.144531 4.566406 -0.320312 4.890625 -1 L 8.078125 -7.609375 C 8.441406 -8.367188 8.613281 -8.957031 8.59375 -9.375 C 8.582031 -9.789062 8.363281 -10.101562 7.9375 -10.3125 C 7.582031 -10.476562 6.90625 -10.601562 5.90625 -10.6875 L 5.828125 -10.71875 C 5.742188 -10.757812 5.707031 -10.835938 5.71875 -10.953125 C 5.726562 -11.078125 5.789062 -11.140625 5.90625 -11.140625 L 10.6875 -11.109375 L 10.890625 -11.046875 C 11.085938 -10.941406 11.171875 -10.582031 11.140625 -9.96875 C 11.117188 -9.351562 10.914062 -8.640625 10.53125 -7.828125 C 11.851562 -8.410156 13.046875 -8.726562 14.109375 -8.78125 C 15.171875 -8.84375 16.148438 -8.660156 17.046875 -8.234375 C 18.296875 -7.628906 19.085938 -6.820312 19.421875 -5.8125 C 19.753906 -4.800781 19.597656 -3.625 18.953125 -2.28125 L 15.796875 4.265625 C 15.472656 4.941406 15.285156 5.457031 15.234375 5.8125 C 15.191406 6.164062 15.285156 6.472656 15.515625 6.734375 C 15.742188 7.003906 16.160156 7.285156 16.765625 7.578125 Z M 16.765625 7.578125 "/></g></g></g><g fill="#ffffff" fill-opacity="1"><g transform="translate(262.49989, 62.201712)"><g><path d="M 13.96875 6.796875 C 14.050781 6.859375 14.070312 6.941406 14.03125 7.046875 C 14 7.148438 13.925781 7.195312 13.8125 7.1875 L 9.609375 6.59375 C 9.515625 6.582031 9.421875 6.550781 9.328125 6.5 C 9.054688 6.320312 8.9375 5.984375 8.96875 5.484375 C 9 4.992188 9.1875 4.414062 9.53125 3.75 L 7.234375 3.734375 C 6.492188 3.722656 5.878906 3.660156 5.390625 3.546875 C 4.898438 3.429688 4.441406 3.234375 4.015625 2.953125 C 3.253906 2.453125 2.789062 1.859375 2.625 1.171875 C 2.46875 0.492188 2.59375 -0.15625 3 -0.78125 C 3.40625 -1.40625 4.003906 -1.78125 4.796875 -1.90625 C 5.597656 -2.03125 6.707031 -1.925781 8.125 -1.59375 L 12.359375 -0.625 L 13.75 -2.734375 C 15.28125 -5.046875 15.394531 -6.628906 14.09375 -7.484375 C 13.394531 -7.941406 12.707031 -8.054688 12.03125 -7.828125 C 11.363281 -7.609375 10.769531 -7.238281 10.25 -6.71875 C 9.9375 -6.382812 9.617188 -6.15625 9.296875 -6.03125 C 8.984375 -5.90625 8.632812 -5.96875 8.25 -6.21875 C 7.914062 -6.4375 7.71875 -6.695312 7.65625 -7 C 7.601562 -7.300781 7.660156 -7.578125 7.828125 -7.828125 C 8.148438 -8.316406 8.796875 -8.601562 9.765625 -8.6875 C 10.734375 -8.769531 11.769531 -8.679688 12.875 -8.421875 C 13.976562 -8.160156 14.878906 -7.800781 15.578125 -7.34375 C 16.429688 -6.78125 16.898438 -6.085938 16.984375 -5.265625 C 17.078125 -4.441406 16.785156 -3.523438 16.109375 -2.515625 L 12.296875 3.28125 C 11.828125 4.007812 11.570312 4.597656 11.53125 5.046875 C 11.488281 5.503906 11.6875 5.878906 12.125 6.171875 C 12.507812 6.421875 13.101562 6.617188 13.90625 6.765625 Z M 9.796875 3.28125 L 9.90625 3.125 L 12.078125 -0.1875 L 8.453125 -0.96875 C 7.734375 -1.113281 7.144531 -1.117188 6.6875 -0.984375 C 6.226562 -0.859375 5.863281 -0.59375 5.59375 -0.1875 C 5.257812 0.3125 5.140625 0.835938 5.234375 1.390625 C 5.335938 1.941406 5.644531 2.390625 6.15625 2.734375 C 6.570312 3.003906 7.179688 3.164062 7.984375 3.21875 Z M 9.796875 3.28125 "/></g></g></g><g fill="#ffffff" fill-opacity="1"><g transform="translate(274.600666, 70.302001)"><g/></g></g><g fill="#ffffff" fill-opacity="1"><g transform="translate(280.724911, 74.735193)"><g><path d="M 7.109375 2.625 C 6.597656 3.132812 6.273438 3.550781 6.140625 3.875 C 6.015625 4.207031 6.050781 4.550781 6.25 4.90625 C 6.457031 5.269531 6.878906 5.769531 7.515625 6.40625 L 10.390625 9.265625 C 11.378906 10.253906 12.476562 10.738281 13.6875 10.71875 C 14.894531 10.695312 16.140625 10.238281 17.421875 9.34375 C 17.472656 9.289062 17.539062 9.316406 17.625 9.421875 C 17.71875 9.523438 17.738281 9.601562 17.6875 9.65625 C 16.082031 10.957031 14.804688 12.082031 13.859375 13.03125 C 13.722656 13.164062 13.597656 13.238281 13.484375 13.25 C 13.367188 13.257812 13.234375 13.1875 13.078125 13.03125 L 0.921875 0.921875 C 0.878906 0.878906 0.910156 0.800781 1.015625 0.6875 C 1.117188 0.582031 1.191406 0.550781 1.234375 0.59375 C 1.898438 1.257812 2.429688 1.703125 2.828125 1.921875 C 3.222656 2.140625 3.597656 2.171875 3.953125 2.015625 C 4.304688 1.867188 4.75 1.53125 5.28125 1 L 17.421875 -11.171875 C 17.941406 -11.691406 18.269531 -12.128906 18.40625 -12.484375 C 18.550781 -12.835938 18.515625 -13.210938 18.296875 -13.609375 C 18.085938 -14.003906 17.648438 -14.535156 16.984375 -15.203125 C 16.941406 -15.242188 16.972656 -15.316406 17.078125 -15.421875 C 17.191406 -15.535156 17.269531 -15.570312 17.3125 -15.53125 L 18.578125 -14.203125 C 19.265625 -13.429688 19.835938 -12.820312 20.296875 -12.375 C 20.785156 -11.882812 21.421875 -11.285156 22.203125 -10.578125 L 23.5 -9.375 C 23.550781 -9.320312 23.519531 -9.238281 23.40625 -9.125 C 23.300781 -9.019531 23.222656 -8.992188 23.171875 -9.046875 C 22.515625 -9.691406 21.988281 -10.117188 21.59375 -10.328125 C 21.195312 -10.546875 20.8125 -10.582031 20.4375 -10.4375 C 20.070312 -10.289062 19.628906 -9.953125 19.109375 -9.421875 Z M 7.109375 2.625 "/></g></g></g><g fill="#ffffff" fill-opacity="1"><g transform="translate(293.762975, 88.101198)"><g><path d="M 2 3.09375 C 1.695312 2.71875 1.566406 2.320312 1.609375 1.90625 C 1.648438 1.488281 1.859375 1.128906 2.234375 0.828125 C 2.609375 0.523438 2.992188 0.398438 3.390625 0.453125 C 3.785156 0.515625 4.132812 0.734375 4.4375 1.109375 C 4.769531 1.515625 4.921875 1.914062 4.890625 2.3125 C 4.867188 2.707031 4.671875 3.054688 4.296875 3.359375 C 3.921875 3.660156 3.523438 3.789062 3.109375 3.75 C 2.703125 3.71875 2.332031 3.5 2 3.09375 Z M 2 3.09375 "/></g></g></g><g fill="#ffffff" fill-opacity="1"><g transform="translate(297.974779, 93.092063)"><g><path d="M 5.703125 -2.53125 C 5.660156 -2.5625 5.707031 -2.648438 5.84375 -2.796875 C 5.988281 -2.941406 6.140625 -3.070312 6.296875 -3.1875 C 6.679688 -3.457031 6.894531 -3.5625 6.9375 -3.5 L 13.921875 3.453125 C 13.972656 3.484375 13.941406 3.5625 13.828125 3.6875 C 13.710938 3.8125 13.578125 3.929688 13.421875 4.046875 C 13.015625 4.328125 12.753906 4.425781 12.640625 4.34375 Z M 5.703125 -2.53125 "/></g></g></g><g fill="#ffffff" fill-opacity="1"><g transform="translate(304.793549, 100.822161)"><g><path d="M 35.609375 21.78125 C 35.640625 21.851562 35.582031 21.921875 35.4375 21.984375 C 35.300781 22.046875 35.21875 22.039062 35.1875 21.96875 C 34.84375 21.226562 34.34375 20.671875 33.6875 20.296875 C 33.03125 19.921875 32.125 19.753906 30.96875 19.796875 L 9.671875 20.90625 C 9.578125 20.914062 9.476562 20.8125 9.375 20.59375 C 9.289062 20.414062 9.273438 20.269531 9.328125 20.15625 L 16.84375 11.375 L 5.546875 11.96875 C 5.453125 11.976562 5.351562 11.875 5.25 11.65625 C 5.164062 11.476562 5.148438 11.332031 5.203125 11.21875 L 19.59375 -5.578125 C 20.300781 -6.398438 20.734375 -7.097656 20.890625 -7.671875 C 21.054688 -8.242188 20.976562 -8.875 20.65625 -9.5625 C 20.625 -9.632812 20.675781 -9.703125 20.8125 -9.765625 C 20.957031 -9.828125 21.046875 -9.820312 21.078125 -9.75 L 21.625 -8.453125 C 21.863281 -7.785156 22.070312 -7.265625 22.25 -6.890625 C 22.613281 -6.085938 23.039062 -5.226562 23.53125 -4.3125 L 24.21875 -2.9375 C 24.25 -2.875 24.191406 -2.8125 24.046875 -2.75 C 23.910156 -2.6875 23.828125 -2.6875 23.796875 -2.75 C 23.484375 -3.425781 23.171875 -3.890625 22.859375 -4.140625 C 22.554688 -4.390625 22.210938 -4.425781 21.828125 -4.25 C 21.492188 -4.09375 21.144531 -3.796875 20.78125 -3.359375 L 8.6875 10.921875 L 17.609375 10.515625 L 23.703125 3.359375 C 24.378906 2.578125 24.8125 1.894531 25 1.3125 C 25.1875 0.738281 25.128906 0.128906 24.828125 -0.515625 C 24.796875 -0.585938 24.847656 -0.65625 24.984375 -0.71875 C 25.128906 -0.78125 25.21875 -0.773438 25.25 -0.703125 L 25.78125 0.5625 C 26.007812 1.21875 26.203125 1.710938 26.359375 2.046875 C 26.660156 2.703125 26.992188 3.347656 27.359375 3.984375 L 27.84375 4.921875 C 27.875 4.992188 27.816406 5.0625 27.671875 5.125 C 27.535156 5.1875 27.453125 5.179688 27.421875 5.109375 C 27.222656 4.679688 27.050781 4.398438 26.90625 4.265625 C 26.769531 4.128906 26.597656 4.109375 26.390625 4.203125 C 26.097656 4.335938 25.609375 4.8125 24.921875 5.625 L 20.78125 10.5 L 26.71875 10.171875 C 27.519531 10.109375 28.085938 10 28.421875 9.84375 C 28.753906 9.6875 28.945312 9.457031 29 9.15625 C 29.050781 8.863281 28.960938 8.472656 28.734375 7.984375 C 28.703125 7.910156 28.753906 7.84375 28.890625 7.78125 C 29.035156 7.71875 29.125 7.722656 29.15625 7.796875 L 29.46875 8.578125 C 29.625 9.054688 29.816406 9.546875 30.046875 10.046875 C 30.253906 10.492188 30.519531 11 30.84375 11.5625 L 31.515625 12.921875 C 31.546875 12.960938 31.488281 13.015625 31.34375 13.078125 C 31.207031 13.140625 31.125 13.148438 31.09375 13.109375 C 30.75 12.335938 30.253906 11.773438 29.609375 11.421875 C 28.972656 11.066406 28.070312 10.925781 26.90625 11 L 20.078125 11.359375 L 12.828125 19.890625 L 30.703125 18.96875 C 31.242188 18.9375 31.675781 18.847656 32 18.703125 C 32.476562 18.484375 32.734375 18.117188 32.765625 17.609375 C 32.804688 17.097656 32.625 16.40625 32.21875 15.53125 C 32.1875 15.46875 32.238281 15.40625 32.375 15.34375 C 32.519531 15.28125 32.609375 15.28125 32.640625 15.34375 L 33.25 16.78125 C 33.53125 17.53125 33.816406 18.222656 34.109375 18.859375 C 34.316406 19.316406 34.582031 19.820312 34.90625 20.375 Z M 35.609375 21.78125 "/></g></g></g><g fill="#ffffff" fill-opacity="1"><g transform="translate(317.658751, 131.012827)"><g><path d="M 0.59375 3.640625 C 0.457031 3.171875 0.492188 2.753906 0.703125 2.390625 C 0.910156 2.023438 1.25 1.773438 1.71875 1.640625 C 2.175781 1.515625 2.578125 1.554688 2.921875 1.765625 C 3.265625 1.984375 3.503906 2.328125 3.640625 2.796875 C 3.773438 3.304688 3.75 3.734375 3.5625 4.078125 C 3.375 4.429688 3.050781 4.671875 2.59375 4.796875 C 2.125 4.929688 1.707031 4.898438 1.34375 4.703125 C 0.976562 4.503906 0.726562 4.148438 0.59375 3.640625 Z M 0.59375 3.640625 "/></g></g></g></svg>