<svg id="visual" viewBox="0 0 1280 720" width="1280" height="720" xmlns="http://www.w3.org/2000/svg" xmlns:xlink="http://www.w3.org/1999/xlink" version="1.1"><rect x="0" y="0" width="1280" height="720" fill="#140021"></rect><path d="M593 0L602 0L602 103L507 103L507 206L614 206L614 309L572 309L572 411L723 411L723 514L727 514L727 617L705 617L705 720L0 720L0 617L0 617L0 514L0 514L0 411L0 411L0 309L0 309L0 206L0 206L0 103L0 103L0 0L0 0Z" fill="#75e6da"></path><path d="M443 0L319 0L319 103L339 103L339 206L399 206L399 309L359 309L359 411L298 411L298 514L486 514L486 617L537 617L537 720L0 720L0 617L0 617L0 514L0 514L0 411L0 411L0 309L0 309L0 206L0 206L0 103L0 103L0 0L0 0Z" fill="#44c0c9"></path><path d="M326 0L324 0L324 103L239 103L239 206L199 206L199 309L121 309L121 411L254 411L254 514L120 514L120 617L223 617L223 720L0 720L0 617L0 617L0 514L0 514L0 411L0 411L0 309L0 309L0 206L0 206L0 103L0 103L0 0L0 0Z" fill="#189ab4"></path></svg>